<?xml version="1.0" standalone="no"?>
<!DOCTYPE svg PUBLIC "-//W3C//DTD SVG 20010904//EN"
 "http://www.w3.org/TR/2001/REC-SVG-20010904/DTD/svg10.dtd">
<svg version="1.0" xmlns="http://www.w3.org/2000/svg"
 width="512.000000pt" height="512.000000pt" viewBox="0 0 512.000000 512.000000"
 preserveAspectRatio="xMidYMid meet">

<g transform="translate(0.000000,512.000000) scale(0.100000,-0.100000)"
fill="#000000" stroke="none">
<path d="M3944 5105 c-93 -20 -202 -70 -274 -124 -36 -28 -798 -783 -1694
-1679 l-1629 -1630 -173 -833 c-95 -459 -174 -835 -174 -836 0 -3 -18 -7 868
177 l804 167 1653 1654 c1426 1428 1658 1664 1693 1724 125 215 134 449 25
675 -45 94 -48 98 -297 346 -247 248 -252 252 -346 297 -149 73 -309 94 -456
62z m313 -325 c60 -27 94 -57 279 -243 151 -151 219 -226 237 -262 68 -138 59
-289 -24 -410 -15 -22 -73 -85 -128 -140 l-101 -100 -448 448 -447 448 120
117 c156 154 222 185 367 178 61 -3 93 -11 145 -36z m-49 -1467 l-103 -103
-447 447 -448 448 102 102 103 103 447 -447 448 -448 -102 -102z m-1035 409
l167 -167 -1133 -1133 -1132 -1132 -170 170 -170 170 1130 1130 c622 622 1132
1130 1135 1130 3 0 81 -75 173 -168z m-410 -1854 l-1133 -1133 -170 170 -170
170 1132 1132 1133 1133 170 -170 170 -170 -1132 -1132z m-1421 -1279 c-10 -8
-943 -201 -949 -196 -4 4 181 913 193 946 3 10 135 -115 384 -364 209 -209
376 -382 372 -386z"/>
</g>
</svg>
