<?xml version="1.0" standalone="no"?>
<!DOCTYPE svg PUBLIC "-//W3C//DTD SVG 20010904//EN"
 "http://www.w3.org/TR/2001/REC-SVG-20010904/DTD/svg10.dtd">
<svg version="1.0" xmlns="http://www.w3.org/2000/svg"
 width="512.000000pt" height="512.000000pt" viewBox="0 0 512.000000 512.000000"
 preserveAspectRatio="xMidYMid meet">

<g transform="translate(0.000000,512.000000) scale(0.100000,-0.100000)"
stroke="none">
<path d="M701 4789 c-129 -25 -267 -132 -326 -253 -19 -39 -40 -95 -45 -125
-14 -75 -14 -2989 0 -3062 17 -89 63 -174 133 -243 106 -106 212 -146 395
-146 l102 0 0 -99 c0 -123 12 -188 50 -269 36 -77 133 -178 208 -216 115 -58
46 -56 1658 -56 944 0 1501 4 1535 10 182 34 344 196 379 379 14 74 14 2988 0
3062 -26 138 -129 273 -254 334 -87 43 -149 55 -277 55 l-99 0 0 99 c0 180
-35 281 -134 389 -65 70 -164 125 -255 142 -67 12 -3006 12 -3070 -1z m3073
-343 c71 -54 66 62 64 -1580 -3 -1482 -3 -1485 -24 -1512 -11 -15 -33 -37 -48
-48 -27 -21 -30 -21 -1512 -24 -1642 -2 -1526 -7 -1580 64 l-29 37 0 1497 0
1497 27 35 c56 73 -76 68 1579 65 l1486 -2 37 -29z m640 -640 c71 -54 66 62
64 -1580 -3 -1482 -3 -1485 -24 -1512 -11 -15 -33 -37 -48 -48 -27 -21 -30
-21 -1512 -24 -1642 -2 -1526 -7 -1580 64 -27 35 -29 44 -32 146 l-4 108 1220
0 c769 0 1239 4 1273 10 182 34 344 196 379 379 6 35 10 486 10 1273 l0 1220
108 -4 c102 -3 111 -5 146 -32z"/>
<path d="M2175 3986 c-37 -17 -70 -52 -84 -89 -7 -18 -11 -173 -11 -442 l0
-414 -429 -3 c-416 -3 -430 -4 -457 -24 -53 -39 -69 -71 -69 -134 0 -63 16
-95 69 -134 27 -20 41 -21 456 -24 l429 -3 3 -429 c3 -415 4 -429 24 -456 39
-53 71 -69 134 -69 63 0 95 16 134 69 20 27 21 41 24 456 l3 429 429 3 c415 3
429 4 456 24 53 39 69 71 69 134 0 63 -16 95 -69 134 -27 20 -41 21 -456 24
l-429 3 -3 429 c-3 415 -4 429 -24 456 -11 15 -32 37 -46 47 -34 25 -113 32
-153 13z"/>
</g>
</svg>
