<svg width="564" height="112" viewBox="0 0 564 112" fill="none" xmlns="http://www.w3.org/2000/svg">
<path d="M0.147728 13.9261V2.36363H80.875V13.9261H47.0284V110H33.9943V13.9261H0.147728ZM209.529 56.1818C209.529 67.5341 207.479 77.3447 203.38 85.6136C199.28 93.8826 193.657 100.259 186.509 104.744C179.361 109.229 171.197 111.472 162.017 111.472C152.838 111.472 144.674 109.229 137.526 104.744C130.378 100.259 124.755 93.8826 120.655 85.6136C116.556 77.3447 114.506 67.5341 114.506 56.1818C114.506 44.8295 116.556 35.0189 120.655 26.75C124.755 18.4811 130.378 12.1042 137.526 7.61932C144.674 3.13447 152.838 0.892041 162.017 0.892041C171.197 0.892041 179.361 3.13447 186.509 7.61932C193.657 12.1042 199.28 18.4811 203.38 26.75C207.479 35.0189 209.529 44.8295 209.529 56.1818ZM196.915 56.1818C196.915 46.8617 195.356 38.9957 192.238 32.5838C189.154 26.1719 184.967 21.3191 179.677 18.0256C174.421 14.732 168.535 13.0852 162.017 13.0852C155.5 13.0852 149.597 14.732 144.306 18.0256C139.05 21.3191 134.863 26.1719 131.745 32.5838C128.661 38.9957 127.12 46.8617 127.12 56.1818C127.12 65.5019 128.661 73.3679 131.745 79.7798C134.863 86.1918 139.05 91.0445 144.306 94.3381C149.597 97.6316 155.5 99.2784 162.017 99.2784C168.535 99.2784 174.421 97.6316 179.677 94.3381C184.967 91.0445 189.154 86.1918 192.238 79.7798C195.356 73.3679 196.915 65.5019 196.915 56.1818ZM298.213 50.4006V61.9631H251.122V50.4006H298.213ZM377.135 110H343.919V2.36363H378.607C389.048 2.36363 397.983 4.51846 405.411 8.82812C412.839 13.1027 418.532 19.2519 422.492 27.2756C426.451 35.2642 428.431 44.8295 428.431 55.9716C428.431 67.1837 426.433 76.8366 422.439 84.9304C418.445 92.9891 412.629 99.1908 404.99 103.536C397.352 107.845 388.067 110 377.135 110ZM356.953 98.4375H376.294C385.194 98.4375 392.569 96.7206 398.421 93.2869C404.272 89.8532 408.634 84.9654 411.507 78.6236C414.38 72.2817 415.817 64.7311 415.817 55.9716C415.817 47.2822 414.398 39.8016 411.56 33.5298C408.722 27.223 404.482 22.3878 398.841 19.0241C393.2 15.6255 386.175 13.9261 377.766 13.9261H356.953V98.4375ZM563.312 56.1818C563.312 67.5341 561.263 77.3447 557.163 85.6136C553.064 93.8826 547.44 100.259 540.293 104.744C533.145 109.229 524.981 111.472 515.801 111.472C506.621 111.472 498.457 109.229 491.31 104.744C484.162 100.259 478.538 93.8826 474.439 85.6136C470.339 77.3447 468.29 67.5341 468.29 56.1818C468.29 44.8295 470.339 35.0189 474.439 26.75C478.538 18.4811 484.162 12.1042 491.31 7.61932C498.457 3.13447 506.621 0.892041 515.801 0.892041C524.981 0.892041 533.145 3.13447 540.293 7.61932C547.44 12.1042 553.064 18.4811 557.163 26.75C561.263 35.0189 563.312 44.8295 563.312 56.1818ZM550.699 56.1818C550.699 46.8617 549.14 38.9957 546.021 32.5838C542.938 26.1719 538.751 21.3191 533.46 18.0256C528.204 14.732 522.318 13.0852 515.801 13.0852C509.284 13.0852 503.38 14.732 498.089 18.0256C492.834 21.3191 488.647 26.1719 485.528 32.5838C482.445 38.9957 480.903 46.8617 480.903 56.1818C480.903 65.5019 482.445 73.3679 485.528 79.7798C488.647 86.1918 492.834 91.0445 498.089 94.3381C503.38 97.6316 509.284 99.2784 515.801 99.2784C522.318 99.2784 528.204 97.6316 533.46 94.3381C538.751 91.0445 542.938 86.1918 546.021 79.7798C549.14 73.3679 550.699 65.5019 550.699 56.1818Z" fill="#BE8F6E"/>
</svg>
