<?xml version="1.0" standalone="no"?>
<!DOCTYPE svg PUBLIC "-//W3C//DTD SVG 20010904//EN"
 "http://www.w3.org/TR/2001/REC-SVG-20010904/DTD/svg10.dtd">
<svg version="1.0" xmlns="http://www.w3.org/2000/svg"
 width="512.000000pt" height="512.000000pt" viewBox="0 0 512.000000 512.000000"
 preserveAspectRatio="xMidYMid meet">

<g transform="translate(0.000000,512.000000) scale(0.100000,-0.100000)"
stroke="none">
<path d="M1570 4670 c-165 -61 -273 -200 -287 -371 -21 -254 202 -477 456
-456 176 15 322 132 375 302 28 88 19 211 -21 297 -44 93 -109 160 -201 205
-68 34 -83 38 -171 40 -77 3 -107 -1 -151 -17z"/>
<path d="M3285 4673 c-121 -44 -205 -118 -258 -231 -30 -63 -32 -74 -32 -177
0 -105 2 -114 34 -180 133 -270 485 -327 690 -110 201 212 140 546 -123 675
-62 31 -80 35 -165 37 -73 3 -108 -1 -146 -14z"/>
<path d="M1620 2976 c-84 -18 -149 -54 -213 -117 -168 -167 -168 -430 0 -598
166 -165 420 -169 588 -10 92 87 135 185 135 309 0 123 -43 222 -133 308 -65
61 -119 89 -206 108 -78 16 -98 16 -171 0z"/>
<path d="M3324 2975 c-82 -18 -137 -47 -201 -107 -90 -86 -133 -185 -133 -308
0 -124 43 -222 135 -309 168 -159 422 -155 588 10 168 168 168 430 0 598 -65
64 -139 104 -227 120 -72 13 -84 13 -162 -4z"/>
<path d="M1599 1266 c-112 -32 -221 -121 -272 -222 -118 -236 3 -518 258 -598
42 -14 79 -17 145 -14 77 4 98 9 163 41 143 71 228 199 235 358 5 106 -12 171
-67 256 -45 70 -125 135 -203 165 -67 25 -196 33 -259 14z"/>
<path d="M3300 1264 c-116 -31 -214 -115 -271 -229 -32 -66 -34 -75 -34 -180
0 -103 2 -114 32 -177 44 -94 109 -160 202 -206 73 -36 78 -37 186 -37 106 0
113 2 180 34 264 130 325 463 124 676 -109 115 -267 160 -419 119z"/>
</g>
</svg>
